# Blender v2.90.0 OBJ File: 'isorender_floor.blend'
# www.blender.org
o OuterCubeRender_t_Plane.006
v 0.500000 0.000000 -0.500000
v -0.500000 0.000000 0.500000
v 1.479911 1.019998 0.480000
v 0.479911 1.020001 1.480000
v 0.000000 0.000000 -0.000000
v 1.000000 1.020001 -0.000000
v 0.000000 1.020001 1.000000
v -0.000000 1.010000 -0.000000
v 0.000000 -0.000000 1.000000
v 1.000000 -0.000000 -0.000000
v 0.500000 1.019998 0.500000
vt 0.499978 0.505011
vt 0.999955 0.760017
vt 0.499978 0.760015
vt 0.000000 0.760017
vt 0.000000 0.250005
vt 0.999955 0.250005
vt 0.499978 0.000000
vt 0.000000 0.000000
vt 0.999955 0.000000
vt 0.000045 0.999998
vt 1.000000 1.000000
vn -0.0100 0.9999 -0.0100
vn 0.0000 0.0000 -1.0000
vn -1.0000 -0.0000 0.0000
vn 0.0000 1.0000 0.0000
s off
f 8/1/1 7/2/1 11/3/1
f 6/4/1 8/1/1 11/3/1
f 10/5/2 8/1/2 6/4/2
f 8/1/3 9/6/3 7/2/3
f 8/1/2 10/5/2 5/7/2
f 8/1/3 5/7/3 9/6/3
f 5/7/4 10/5/4 1/8/4
f 2/9/4 9/6/4 5/7/4
f 3/10/4 11/3/4 4/11/4
f 7/2/4 4/11/4 11/3/4
f 6/4/4 11/3/4 3/10/4
