# Blender v2.90.0 OBJ File: 'isoprojections.blend'
# www.blender.org
o OuterCubeRender_t_Plane.006
v 0.500000 0.000000 -0.500000
v -0.500000 0.000000 0.500000
v 1.479911 1.019998 0.480000
v 0.479911 1.020001 1.480000
v 0.000000 0.000000 -0.000000
v 1.000000 1.020001 -0.010000
v -0.010000 1.020001 1.000000
v -0.000000 1.010000 -0.000000
v 0.000000 -0.000000 1.000000
v 1.000000 -0.000000 -0.000000
v 0.500000 1.019998 0.500000
vt 0.500000 0.505011
vt 1.000000 0.757517
vt 0.500000 0.760015
vt 0.000000 0.757517
vt 0.004950 0.250005
vt 0.995050 0.250005
vt 0.500000 0.000000
vt 0.004950 0.000000
vt 0.995050 0.000000
vt 0.004995 0.999998
vt 0.995094 1.000000
vn -0.0099 0.9999 -0.0101
vn -0.0101 0.9999 -0.0099
vn -0.0099 -0.0098 -0.9999
vn -0.9999 -0.0098 -0.0099
vn -0.0000 -0.0000 -1.0000
vn -1.0000 -0.0000 0.0000
vn 0.0000 1.0000 0.0000
s off
f 8/1/1 7/2/1 11/3/1
f 6/4/2 8/1/2 11/3/2
f 10/5/3 8/1/3 6/4/3
f 8/1/4 9/6/4 7/2/4
f 8/1/5 10/5/5 5/7/5
f 8/1/6 5/7/6 9/6/6
f 5/7/7 10/5/7 1/8/7
f 2/9/7 9/6/7 5/7/7
f 3/10/7 11/3/7 4/11/7
f 7/2/7 4/11/7 11/3/7
f 6/4/7 11/3/7 3/10/7
